<?xml version="1.0" encoding="UTF-8"?>
<svg xmlns="http://www.w3.org/2000/svg" xmlns:xlink="http://www.w3.org/1999/xlink" width="90px" height="90px" viewBox="0 0 90 90" version="1.1">
<g id="surface1">
<path style=" stroke:none;fill-rule:nonzero;fill:rgb(0%,0%,0%);fill-opacity:1;" d="M 66.96875 60.433594 C 65.859375 61.464844 64.484375 61.621094 63.128906 61.757812 C 62.507812 61.824219 62.121094 62.03125 61.726562 62.519531 C 60.441406 64.113281 58.898438 65.210938 56.742188 65.476562 C 55.363281 65.644531 54.144531 65.367188 52.929688 64.921875 C 52.195312 64.65625 51.65625 64.824219 51.136719 65.273438 C 50.84375 65.527344 50.574219 65.75 50.152344 65.644531 C 50.082031 65.625 49.980469 65.667969 49.914062 65.710938 C 48.449219 66.714844 46.789062 66.925781 45.078125 66.878906 C 44.265625 66.855469 43.484375 66.535156 42.796875 66.167969 C 41.300781 65.367188 39.828125 65.480469 38.257812 65.855469 C 36.210938 66.34375 34.136719 66.359375 32.242188 65.292969 C 31.5625 64.914062 30.941406 64.371094 30.46875 63.683594 C 29.722656 62.597656 28.8125 61.632812 28.082031 60.523438 C 27.015625 58.910156 26.34375 57.125 25.628906 55.351562 C 25.121094 54.101562 24.757812 52.792969 24.566406 51.488281 C 24.375 50.214844 24.210938 48.921875 24.097656 47.636719 C 24.007812 46.613281 24.210938 45.558594 24.320312 44.519531 C 24.464844 43.160156 24.617188 41.796875 24.8125 40.445312 C 25.050781 38.769531 25.214844 37.0625 25.84375 35.484375 C 26.757812 33.175781 27.71875 30.886719 29.445312 29.011719 C 30.425781 27.945312 31.386719 26.835938 32.578125 26.027344 C 34.234375 24.902344 35.945312 23.847656 37.84375 23.105469 C 39.828125 22.328125 41.890625 22.085938 43.964844 21.777344 C 45.566406 21.535156 47.140625 21.65625 48.683594 21.898438 C 50.425781 22.171875 52.074219 22.867188 53.695312 23.628906 C 55.246094 24.355469 56.496094 25.429688 57.675781 26.601562 C 59.019531 27.941406 59.996094 29.535156 60.75 31.285156 C 61.25 32.441406 61.5625 33.65625 61.953125 34.839844 C 62.273438 35.800781 62.3125 36.847656 62.558594 37.839844 C 62.925781 39.316406 63.105469 40.851562 63.925781 42.199219 C 64.191406 42.640625 64.292969 43.175781 64.476562 43.660156 C 65.144531 45.394531 66.214844 46.90625 67.21875 48.441406 C 68.398438 50.25 69.410156 52.160156 69.503906 54.308594 C 69.589844 56.332031 69.402344 58.425781 67.578125 59.867188 C 67.375 60.03125 67.195312 60.222656 66.96875 60.433594 M 56.628906 63.492188 C 58.730469 63.226562 60.167969 61.851562 61.578125 60.46875 C 61.988281 60.0625 62.359375 59.839844 62.933594 59.882812 C 63.511719 59.925781 64.109375 59.90625 64.640625 59.664062 C 66.273438 58.917969 67.175781 57.570312 67.511719 55.867188 C 67.648438 55.167969 67.738281 54.4375 67.476562 53.691406 C 67.058594 52.523438 66.746094 51.328125 66.058594 50.257812 C 65.769531 49.804688 65.574219 49.28125 65.207031 48.878906 C 64.332031 47.90625 63.726562 46.742188 63.175781 45.601562 C 62.324219 43.847656 61.667969 41.996094 61.058594 40.125 C 60.425781 38.195312 60.238281 36.1875 59.679688 34.25 C 59.296875 32.929688 58.640625 31.753906 58.121094 30.523438 C 57.824219 29.820312 57.238281 29.121094 56.679688 28.480469 C 55.640625 27.277344 54.59375 26.097656 53.144531 25.394531 C 51.375 24.535156 49.671875 23.53125 47.578125 23.519531 C 46.554688 23.511719 45.535156 23.527344 44.519531 23.585938 C 43 23.675781 41.5 23.933594 40 24.167969 C 39.226562 24.289062 38.660156 24.886719 37.933594 25.09375 C 37.132812 25.320312 36.402344 25.710938 35.675781 26.078125 C 34.132812 26.859375 32.878906 28.039062 31.664062 29.242188 C 30.585938 30.316406 29.671875 31.527344 28.902344 32.851562 C 28.410156 33.695312 28.339844 34.695312 27.878906 35.523438 C 27.007812 37.097656 26.851562 38.847656 26.625 40.542969 C 26.367188 42.453125 25.996094 44.367188 26.082031 46.324219 C 26.113281 47.050781 26.0625 47.796875 26.125 48.519531 C 26.265625 50.089844 26.4375 51.65625 26.859375 53.195312 C 27.167969 54.316406 27.566406 55.390625 28.046875 56.429688 C 29.070312 58.65625 30.539062 60.605469 31.984375 62.566406 C 32.578125 63.371094 33.40625 63.90625 34.34375 64.113281 C 35.933594 64.472656 37.511719 64.203125 39.074219 63.738281 C 39.597656 63.582031 40.214844 63.417969 40.738281 63.609375 C 41.921875 64.042969 43.121094 64.417969 44.34375 64.726562 C 45.75 65.078125 47.128906 65.007812 48.460938 64.40625 C 49.449219 63.960938 50.425781 63.480469 51.414062 63.035156 C 51.910156 62.8125 52.433594 62.808594 52.945312 62.996094 C 54.101562 63.425781 55.253906 63.867188 56.628906 63.492188 Z M 56.628906 63.492188 "/>
<path style=" stroke:none;fill-rule:nonzero;fill:rgb(0%,0%,0%);fill-opacity:1;" d="M 71.671875 27.433594 C 73.289062 28.140625 73.734375 30.574219 72.519531 31.945312 C 71.699219 32.871094 70.738281 33.414062 69.648438 33.734375 C 68.800781 33.980469 67.953125 33.722656 67.117188 33.28125 C 65.546875 32.457031 64.445312 31.390625 64.339844 29.515625 C 64.304688 28.859375 64.972656 27.417969 65.542969 27.089844 C 66.390625 26.605469 67.382812 26.671875 68.164062 27.285156 C 68.503906 27.550781 68.820312 27.847656 69.167969 28.144531 C 69.933594 27.75 70.636719 27.105469 71.671875 27.433594 M 71.429688 30.203125 C 71.695312 29.722656 71.5 29.300781 71.1875 28.953125 C 70.933594 28.671875 70.566406 28.675781 70.21875 28.835938 C 69.804688 29.027344 69.425781 29.238281 69.519531 29.796875 C 69.554688 29.992188 69.496094 30.144531 69.285156 30.199219 C 69.09375 30.25 68.949219 30.171875 68.828125 30.023438 C 68.621094 29.777344 68.648438 29.445312 68.515625 29.171875 C 68.203125 28.550781 67.695312 28.160156 67.015625 28.050781 C 66.480469 27.960938 66.175781 28.382812 65.933594 28.761719 C 65.527344 29.410156 65.894531 30.636719 66.585938 31.089844 C 66.964844 31.339844 67.390625 31.539062 67.71875 31.84375 C 68.183594 32.273438 68.699219 32.324219 69.21875 32.117188 C 70.132812 31.75 71.140625 31.460938 71.429688 30.203125 Z M 71.429688 30.203125 "/>
<path style=" stroke:none;fill-rule:nonzero;fill:rgb(0%,0%,0%);fill-opacity:1;" d="M 21.003906 50.949219 C 20.449219 51.511719 20.453125 52.484375 19.660156 52.746094 C 18.199219 53.222656 15.957031 52.773438 15.144531 51.105469 C 14.792969 50.378906 14.941406 49.65625 15.488281 49.046875 C 16.019531 48.445312 16.679688 48.554688 17.367188 48.769531 C 17.628906 48.320312 17.773438 47.808594 18.148438 47.429688 C 18.75 46.816406 19.511719 46.589844 20.222656 46.863281 C 21.054688 47.183594 21.476562 47.816406 21.589844 48.683594 C 21.695312 49.5 21.476562 50.230469 21.003906 50.949219 M 17.53125 49.785156 C 17.183594 49.550781 16.769531 49.355469 16.53125 49.828125 C 16.3125 50.253906 16.507812 50.71875 16.9375 50.933594 C 17.460938 51.191406 18.019531 51.394531 18.621094 51.386719 C 18.796875 51.382812 19.003906 51.398438 19.101562 51.238281 C 19.601562 50.429688 20.1875 49.65625 20.140625 48.625 C 20.117188 48.070312 19.832031 47.910156 19.320312 48.011719 C 18.679688 48.144531 18.1875 48.714844 18.136719 49.457031 C 18.109375 49.835938 18.046875 50.082031 17.53125 49.785156 Z M 17.53125 49.785156 "/>
<path style=" stroke:none;fill-rule:nonzero;fill:rgb(0%,0%,0%);fill-opacity:1;" d="M 35.414062 57.335938 C 35.257812 57.179688 35.117188 57.066406 35.023438 56.921875 C 34.539062 56.199219 34 55.726562 33.058594 56.25 C 32.691406 56.453125 32.304688 56.125 31.941406 56.011719 C 30.15625 55.464844 28.722656 54.402344 27.617188 52.894531 C 27.53125 52.777344 27.472656 52.625 27.441406 52.480469 C 27.375 52.203125 27.3125 51.882812 27.585938 51.703125 C 27.859375 51.523438 28.140625 51.664062 28.347656 51.882812 C 29.175781 52.753906 30.210938 53.371094 31.148438 54.101562 C 31.972656 54.742188 32.90625 54.679688 33.816406 54.425781 C 34.375 54.273438 34.621094 53.5 34.425781 52.878906 C 34.101562 51.839844 33.578125 51.035156 32.585938 50.410156 C 31.574219 49.773438 30.777344 48.796875 29.910156 47.945312 C 29.675781 47.71875 29.695312 47.355469 29.8125 47.082031 C 30.007812 46.628906 30.386719 47.046875 30.699219 46.972656 C 30.929688 46.449219 30.980469 45.851562 31.347656 45.367188 C 32.773438 43.484375 35.339844 42.507812 37.660156 43.175781 C 38.292969 43.355469 38.898438 43.71875 39.382812 44.183594 C 39.71875 44.507812 39.960938 44.507812 40.347656 44.28125 C 41.417969 43.648438 42.558594 43.210938 43.84375 43.25 C 45.546875 43.296875 47.421875 44.5625 48.066406 46.171875 C 48.199219 46.171875 48.351562 46.152344 48.496094 46.175781 C 48.714844 46.210938 48.933594 46.296875 48.988281 46.539062 C 49.039062 46.777344 48.90625 46.964844 48.710938 47.089844 C 47.550781 47.839844 46.472656 48.707031 45.222656 49.335938 C 44.214844 49.84375 43.238281 51.378906 44.160156 52.617188 C 44.679688 53.316406 45.363281 53.589844 46.269531 53.269531 C 47.328125 52.894531 48.230469 52.242188 49.148438 51.625 C 49.71875 51.242188 50.25 50.792969 50.8125 50.394531 C 51.019531 50.253906 51.292969 50.074219 51.507812 50.363281 C 51.671875 50.582031 51.574219 50.828125 51.394531 51.011719 C 49.703125 52.738281 47.988281 54.4375 45.566406 55.128906 C 45.378906 55.183594 45.175781 55.253906 44.992188 55.230469 C 44.539062 55.179688 44.261719 55.378906 44.011719 55.730469 C 42.832031 57.414062 41.054688 58.398438 39.46875 59.601562 C 39.285156 59.742188 39.085938 59.75 38.859375 59.625 C 37.667969 58.957031 36.476562 58.289062 35.414062 57.335938 M 44.742188 45.058594 C 42.398438 44.136719 40.539062 44.789062 39.152344 46.824219 C 38.953125 46.730469 38.929688 46.585938 38.949219 46.46875 C 39.035156 45.96875 38.746094 45.710938 38.367188 45.492188 C 38.195312 45.394531 38.015625 45.304688 37.875 45.175781 C 36.011719 43.425781 32.382812 44.777344 31.554688 47.101562 C 31.441406 47.425781 31.402344 47.71875 31.714844 47.910156 C 32.570312 48.429688 33.261719 49.167969 34.085938 49.71875 C 35.335938 50.554688 36.183594 51.582031 36.007812 53.207031 C 35.933594 53.871094 35.542969 54.375 35.289062 54.945312 C 35.140625 55.28125 35.140625 55.472656 35.457031 55.703125 C 36.507812 56.472656 37.609375 57.160156 38.714844 57.84375 C 38.996094 58.015625 39.257812 58.007812 39.542969 57.757812 C 40.164062 57.21875 40.84375 56.75 41.464844 56.210938 C 42.082031 55.671875 42.820312 55.277344 43.390625 54.628906 C 43.207031 54.375 43.035156 54.15625 42.882812 53.921875 C 42.191406 52.859375 42.019531 51.734375 42.597656 50.585938 C 43.121094 49.554688 43.949219 48.789062 44.953125 48.210938 C 45.292969 48.015625 45.613281 47.785156 45.949219 47.589844 C 46.167969 47.464844 46.210938 47.320312 46.207031 47.0625 C 46.1875 46.082031 45.640625 45.507812 44.742188 45.058594 Z M 44.742188 45.058594 "/>
<path style=" stroke:none;fill-rule:nonzero;fill:rgb(0%,0%,0%);fill-opacity:1;" d="M 46.328125 36.34375 C 46.867188 36.957031 47.230469 37.582031 47.003906 38.402344 C 46.742188 39.351562 46.03125 39.789062 45.15625 39.917969 C 44.230469 40.058594 42.945312 39.050781 43.15625 37.804688 C 43.335938 36.75 44.007812 36.03125 45.050781 35.824219 C 45.566406 35.722656 45.871094 36.164062 46.328125 36.34375 Z M 46.328125 36.34375 "/>
<path style=" stroke:none;fill-rule:nonzero;fill:rgb(0%,0%,0%);fill-opacity:1;" d="M 32.554688 38.902344 C 32 38.179688 31.691406 37.503906 32.105469 36.589844 C 32.542969 35.621094 32.875 35.265625 33.996094 35.238281 C 34.808594 35.21875 35.34375 35.722656 35.65625 36.410156 C 35.96875 37.101562 35.761719 37.804688 35.34375 38.375 C 34.917969 38.957031 34.277344 39.265625 33.53125 39.191406 C 33.210938 39.160156 32.90625 39.023438 32.554688 38.902344 Z M 32.554688 38.902344 "/>
<path style=" stroke:none;fill-rule:nonzero;fill:rgb(0%,0%,0%);fill-opacity:1;" d="M 37.34375 38.699219 C 37.660156 38.464844 37.953125 38.496094 38.230469 38.660156 C 38.835938 39.019531 39.46875 39.003906 40.113281 38.816406 C 40.390625 38.738281 40.644531 38.738281 40.78125 39.03125 C 40.921875 39.339844 40.878906 39.617188 40.601562 39.847656 C 39.703125 40.601562 38.066406 40.410156 37.382812 39.476562 C 37.203125 39.234375 37.210938 38.996094 37.34375 38.699219 Z M 37.34375 38.699219 "/>
<path style=" stroke:none;fill-rule:nonzero;fill:rgb(0%,0%,0%);fill-opacity:1;" d="M 30.375 41.890625 C 30.183594 42.121094 29.988281 42.179688 29.804688 41.984375 C 29.648438 41.824219 29.695312 41.628906 29.816406 41.460938 C 29.921875 41.308594 30.070312 41.207031 30.25 41.296875 C 30.492188 41.414062 30.472656 41.628906 30.375 41.890625 Z M 30.375 41.890625 "/>
<path style=" stroke:none;fill-rule:nonzero;fill:rgb(0%,0%,0%);fill-opacity:1;" d="M 30.886719 41.683594 C 31.125 41.335938 31.40625 41.625 31.671875 41.621094 C 31.445312 41.875 31.230469 42.1875 30.886719 41.683594 Z M 30.886719 41.683594 "/>
</g>
</svg>
